HIERARCHY
ROOT Hips
{
  OFFSET -0.041 -12.155 -307.151
  CHANNELS 6 Xposition Yposition Zposition Zrotation Xrotation Yrotation
  JOINT LeftUpLeg
  {
    OFFSET 6.290 -6.144 1.024
    CHANNELS 6 Xposition Yposition Zposition Zrotation Xrotation Yrotation
    JOINT LeftLeg
    {
      OFFSET 0.000 -46.811 0.000
      CHANNELS 6 Xposition Yposition Zposition Zrotation Xrotation Yrotation
      JOINT LeftFoot
      {
        OFFSET 0.000 -36.893 -0.000
        CHANNELS 6 Xposition Yposition Zposition Zrotation Xrotation Yrotation
        End Site
        {
          OFFSET 0.000 -7.369 4.255
        }
      }
    }
  }
  JOINT RightUpLeg
  {
    OFFSET -6.149 -6.560 1.411
    CHANNELS 6 Xposition Yposition Zposition Zrotation Xrotation Yrotation
    JOINT RightLeg
    {
      OFFSET 0.000 -47.280 0.000
      CHANNELS 6 Xposition Yposition Zposition Zrotation Xrotation Yrotation
      JOINT RightFoot
      {
        OFFSET 0.000 -37.199 -0.000
        CHANNELS 6 Xposition Yposition Zposition Zrotation Xrotation Yrotation
        End Site
        {
          OFFSET 0.000 -7.813 4.511
        }
      }
    }
  }
  JOINT Spine
  {
    OFFSET 0.000 5.965 -5.965
    CHANNELS 6 Xposition Yposition Zposition Zrotation Xrotation Yrotation
    JOINT LeftShoulder
    {
      OFFSET -0.000 34.359 0.000
      CHANNELS 6 Xposition Yposition Zposition Zrotation Xrotation Yrotation
      JOINT LeftArm
      {
        OFFSET 15.742 0.000 -0.000
        CHANNELS 6 Xposition Yposition Zposition Zrotation Xrotation Yrotation
        JOINT LeftForeArm
        {
          OFFSET 26.657 0.000 0.000
          CHANNELS 6 Xposition Yposition Zposition Zrotation Xrotation Yrotation
          JOINT LeftHand
          {
            OFFSET 27.092 0.000 -0.000
            CHANNELS 6 Xposition Yposition Zposition Zrotation Xrotation Yrotation
            JOINT LeftHandThumb1
            {
            OFFSET 4.970 -0.620 3.390
            CHANNELS 6 Xposition Yposition Zposition Zrotation Xrotation Yrotation
              JOINT LeftHandThumb2
              {
              OFFSET 2.150 -0.000 0.000
              CHANNELS 6 Xposition Yposition Zposition Zrotation Xrotation Yrotation
                JOINT LeftHandThumb3
                {
                OFFSET 2.200 -0.000 0.000
                CHANNELS 6 Xposition Yposition Zposition Zrotation Xrotation Yrotation
                  JOINT LeftHandThumb4
                  {
                  OFFSET 1.700 -0.000 0.000
                  CHANNELS 6 Xposition Yposition Zposition Zrotation Xrotation Yrotation
                  }
                }
              }
            }
            JOINT LeftHandIndex1
            {
            OFFSET 8.730 0.680 2.070
            CHANNELS 6 Xposition Yposition Zposition Zrotation Xrotation Yrotation
              JOINT LeftHandIndex2
              {
              OFFSET 2.670 -0.000 0.000
              CHANNELS 6 Xposition Yposition Zposition Zrotation Xrotation Yrotation
                JOINT LeftHandIndex3
                {
                OFFSET 2.130 -0.000 0.000
                CHANNELS 6 Xposition Yposition Zposition Zrotation Xrotation Yrotation
                  JOINT LeftHandIndex4
                  {
                  OFFSET 1.800 -0.000 0.000
                  CHANNELS 6 Xposition Yposition Zposition Zrotation Xrotation Yrotation
                  }
                }
              }
            }
            JOINT LeftHandMiddle1
            {
            OFFSET 9.220 0.670 0.550
            CHANNELS 6 Xposition Yposition Zposition Zrotation Xrotation Yrotation
              JOINT LeftHandMiddle2
              {
              OFFSET 2.660 -0.000 0.000
              CHANNELS 6 Xposition Yposition Zposition Zrotation Xrotation Yrotation
                JOINT LeftHandMiddle3
                {
                OFFSET 2.280 -0.000 0.000
                CHANNELS 6 Xposition Yposition Zposition Zrotation Xrotation Yrotation
                  JOINT LeftHandMiddle4
                  {
                  OFFSET 1.500 -0.000 0.000
                  CHANNELS 6 Xposition Yposition Zposition Zrotation Xrotation Yrotation
                  }
                }
              }
            }
            JOINT LeftHandRing1
            {
            OFFSET 9.250 0.670 -1.130
            CHANNELS 6 Xposition Yposition Zposition Zrotation Xrotation Yrotation
              JOINT LeftHandRing2
              {
              OFFSET 2.470 -0.000 0.000
              CHANNELS 6 Xposition Yposition Zposition Zrotation Xrotation Yrotation
                JOINT LeftHandRing3
                {
                OFFSET 2.210 -0.000 0.000
                CHANNELS 6 Xposition Yposition Zposition Zrotation Xrotation Yrotation
                  JOINT LeftHandRing4
                  {
                  OFFSET 1.800 -0.000 0.000
                  CHANNELS 6 Xposition Yposition Zposition Zrotation Xrotation Yrotation
                  }
                }
              }
            }
            JOINT LeftHandPinky1
            {
            OFFSET 9.350 0.660 -2.720
            CHANNELS 6 Xposition Yposition Zposition Zrotation Xrotation Yrotation
              JOINT LeftHandPinky2
              {
              OFFSET 1.630 -0.000 0.000
              CHANNELS 6 Xposition Yposition Zposition Zrotation Xrotation Yrotation
                JOINT LeftHandPinky3
                {
                OFFSET 1.710 -0.000 0.000
                CHANNELS 6 Xposition Yposition Zposition Zrotation Xrotation Yrotation
                  JOINT LeftHandPinky4
                  {
                  OFFSET 1.800 -0.000 0.000
                  CHANNELS 6 Xposition Yposition Zposition Zrotation Xrotation Yrotation
                  }
                }
              }
            }
          }
        }
      }
    }
    JOINT RightShoulder
    {
      OFFSET -0.000 34.359 0.000
      CHANNELS 6 Xposition Yposition Zposition Zrotation Xrotation Yrotation
      JOINT RightArm
      {
        OFFSET -17.452 0.000 -0.000
        CHANNELS 6 Xposition Yposition Zposition Zrotation Xrotation Yrotation
        JOINT RightForeArm
        {
          OFFSET -26.105 0.000 0.000
          CHANNELS 6 Xposition Yposition Zposition Zrotation Xrotation Yrotation
          JOINT RightHand
          {
            OFFSET -26.973 0.000 -0.000
            CHANNELS 6 Xposition Yposition Zposition Zrotation Xrotation Yrotation
            JOINT RightHandThumb1
            {
            OFFSET -4.970 -0.620 3.390
            CHANNELS 6 Xposition Yposition Zposition Zrotation Xrotation Yrotation
              JOINT RightHandThumb2
              {
              OFFSET -2.150 0.000 0.000
              CHANNELS 6 Xposition Yposition Zposition Zrotation Xrotation Yrotation
                JOINT RightHandThumb3
                {
                OFFSET -2.200 0.000 0.000
                CHANNELS 6 Xposition Yposition Zposition Zrotation Xrotation Yrotation
                  JOINT RightHandThumb4
                  {
                  OFFSET -1.700 0.000 0.000
                  CHANNELS 6 Xposition Yposition Zposition Zrotation Xrotation Yrotation
                  }
                }
              }
            }
            JOINT RightHandIndex1
            {
            OFFSET -8.730 0.680 2.070
            CHANNELS 6 Xposition Yposition Zposition Zrotation Xrotation Yrotation
              JOINT RightHandIndex2
              {
              OFFSET -2.670 0.000 0.000
              CHANNELS 6 Xposition Yposition Zposition Zrotation Xrotation Yrotation
                JOINT RightHandIndex3
                {
                OFFSET -2.130 0.000 0.000
                CHANNELS 6 Xposition Yposition Zposition Zrotation Xrotation Yrotation
                  JOINT RightHandIndex4
                  {
                  OFFSET -1.800 0.000 0.000
                  CHANNELS 6 Xposition Yposition Zposition Zrotation Xrotation Yrotation
                  }
                }
              }
            }
            JOINT RightHandMiddle1
            {
            OFFSET -9.220 0.670 0.550
            CHANNELS 6 Xposition Yposition Zposition Zrotation Xrotation Yrotation
              JOINT RightHandMiddle2
              {
              OFFSET -2.660 0.000 0.000
              CHANNELS 6 Xposition Yposition Zposition Zrotation Xrotation Yrotation
                JOINT RightHandMiddle3
                {
                OFFSET -2.280 0.000 0.000
                CHANNELS 6 Xposition Yposition Zposition Zrotation Xrotation Yrotation
                  JOINT RightHandMiddle4
                  {
                  OFFSET -1.500 0.000 0.000
                  CHANNELS 6 Xposition Yposition Zposition Zrotation Xrotation Yrotation
                  }
                }
              }
            }
            JOINT RightHandRing1
            {
            OFFSET -9.250 0.670 -1.130
            CHANNELS 6 Xposition Yposition Zposition Zrotation Xrotation Yrotation
              JOINT RightHandRing2
              {
              OFFSET -2.470 0.000 0.000
              CHANNELS 6 Xposition Yposition Zposition Zrotation Xrotation Yrotation
                JOINT RightHandRing3
                {
                OFFSET -2.210 0.000 0.000
                CHANNELS 6 Xposition Yposition Zposition Zrotation Xrotation Yrotation
                  JOINT RightHandRing4
                  {
                  OFFSET -1.800 0.000 0.000
                  CHANNELS 6 Xposition Yposition Zposition Zrotation Xrotation Yrotation
                  }
                }
              }
            }
            JOINT RightHandPinky1
            {
            OFFSET -9.350 0.660 -2.720
            CHANNELS 6 Xposition Yposition Zposition Zrotation Xrotation Yrotation
              JOINT RightHandPinky2
              {
              OFFSET -1.630 0.000 0.000
              CHANNELS 6 Xposition Yposition Zposition Zrotation Xrotation Yrotation
                JOINT RightHandPinky3
                {
                OFFSET -1.710 0.000 0.000
                CHANNELS 6 Xposition Yposition Zposition Zrotation Xrotation Yrotation
                  JOINT RightHandPinky4
                  {
                  OFFSET -1.800 0.000 0.000
                  CHANNELS 6 Xposition Yposition Zposition Zrotation Xrotation Yrotation
                  }
                }
              }
            }
          }
        }
      }
    }
    JOINT Neck
    {
      OFFSET -0.000 34.359 0.000
      CHANNELS 6 Xposition Yposition Zposition Zrotation Xrotation Yrotation
      JOINT Head
      {
        OFFSET -0.000 18.755 -0.000
        CHANNELS 6 Xposition Yposition Zposition Zrotation Xrotation Yrotation
        End Site
        {
          OFFSET -0.000 0.075 -0.000
        }
      }
    }
  }
}
MOTION
Frames:	5
Frame Time:	0.0333333
-1.21376 -14.0005 -309.68 -2.56067 -5.01963 -1.30619 6.96413 -6.59463 1.76797 4.04768 1.05375 -4.09749 -1.49012e-06 -45.1359 -4.76837e-05 0.411502 -0.895526 0.00643269 -4.47035e-06 -35.4958 -2.38419e-05 3.5226 -29.1914 3.42469 -6.57686 -7.1139 0.805664 3.85319 -2.42491 -3.99044 -2.98023e-06 -46.5895 -4.76837e-05 -0.292668 4.24242 0.0216491 2.98023e-06 -35.7533 4.76837e-05 1.09221 -27.6289 1.10928 7.45058e-07 5.95776 -5.95772 1.8182 -0.774778 -2.90849 0 34.359 0 -35.6509 1.25932e-05 -7.66147 18.3744 -2.98023e-06 4.76837e-05 -41.5808 12.6465 5.914 26.2512 -5.96046e-06 4.76837e-05 6.7569e-07 -5.12264e-06 -22.2023 26.343 -5.96046e-06 -4.76837e-05 1.13481 0.00210886 2.48584 0.0062 0.0497 0.0339 0 0 0 0 0.0215 0 0 0 0 0 0.022 0 0 0 0 0 0.017 0 0 0 0 -0.0068 0.0873 0.0207 0 0 0 0 0.0267 0 0 0 0 0 0.0213 0 0 0 0 0 0.018 0 0 0 0 -0.0067 0.0922 0.0055 0 0 0 0 0.0266 0 0 0 0 0 0.0228 0 0 0 0 0 0.015 0 0 0 0 -0.0067 0.0925 -0.0113 0 0 0 0 0.0247 0 0 0 0 0 0.0221 0 0 0 0 0 0.018 0 0 0 0 -0.0066 0.0935 -0.0272 0 0 0 0 0.0163 0 0 0 0 0 0.0171 0 0 0 0 0 0.018 0 0 0 0 0 34.359 0 27.2379 -1.28066e-06 7.93054 -17.7547 -1.78814e-05 -4.76837e-05 53.9393 -1.32881 -15.2616 -28.8642 -1.49012e-06 4.76837e-05 3.65749e-06 2.01437e-06 32.0904 -26.4556 1.49012e-06 -4.76837e-05 5.74244 0.00580427 -1.98355 -0.0062 0.0497 0.0339 0 0 0 0 0.0215 0 0 0 0 0 0.022 0 0 0 0 0 0.017 0 0 0 0 0.0068 0.0873 0.0207 0 0 0 0 0.0267 0 0 0 0 0 0.0213 0 0 0 0 0 0.018 0 0 0 0 0.0067 0.0922 0.0055 0 0 0 0 0.0266 0 0 0 0 0 0.0228 0 0 0 0 0 0.015 0 0 0 0 0.0067 0.0925 -0.0113 0 0 0 0 0.0247 0 0 0 0 0 0.0221 0 0 0 0 0 0.018 0 0 0 0 0.0066 0.0935 -0.0272 0 0 0 0 0.0163 0 0 0 0 0 0.0171 0 0 0 0 0 0.018 0 0 0 0 0 34.359 0 5.16351 14.3234 -1.28068 -1.49012e-06 18.4654 -4.76837e-05 9.49823e-06 -1.10991e-05 1.28066e-06 
-1.04692 -14.0399 -309.675 -2.51238 -4.87777 -1.1847 6.97766 -6.59803 1.72117 3.87571 0.862669 -3.66427 0 -45.1378 2.38419e-05 0.461608 -1.00443 0.00809203 -2.98023e-06 -35.4806 -4.76837e-05 3.11933 -29.9534 3.07272 -6.6151 -7.09405 0.856781 3.64732 -2.58475 -3.56381 -2.98023e-06 -46.0521 -7.15256e-05 -0.157959 4.36346 0.0120184 2.98023e-06 -35.9813 0 0.5143 -21.9371 0.550051 2.98023e-06 5.96337 -5.96333 1.65412 -0.888613 -2.74084 -2.98023e-06 34.359 -4.76837e-05 -35.5554 1.15259e-05 -7.93164 18.2388 2.98023e-06 -2.38419e-05 -41.8036 14.4145 5.82827 26.3617 1.78814e-05 0.000119209 2.97601e-06 5.12264e-06 -21.8686 26.7402 -1.78814e-05 -9.53674e-05 1.82688 0.00892121 2.38288 0.0062 0.0497 0.0339 0 0 0 0 0.0215 0 0 0 0 0 0.022 0 0 0 0 0 0.017 0 0 0 0 -0.0068 0.0873 0.0207 0 0 0 0 0.0267 0 0 0 0 0 0.0213 0 0 0 0 0 0.018 0 0 0 0 -0.0067 0.0922 0.0055 0 0 0 0 0.0266 0 0 0 0 0 0.0228 0 0 0 0 0 0.015 0 0 0 0 -0.0067 0.0925 -0.0113 0 0 0 0 0.0247 0 0 0 0 0 0.0221 0 0 0 0 0 0.018 0 0 0 0 -0.0066 0.0935 -0.0272 0 0 0 0 0.0163 0 0 0 0 0 0.0171 0 0 0 0 0 0.018 0 0 0 0 -2.98023e-06 34.359 -4.76837e-05 27.2507 -3.4151e-06 8.08742 -17.8897 -1.19209e-05 2.38419e-05 53.9209 -1.75719 -15.7075 -28.8736 2.98023e-06 0 4.0133e-06 9.73835e-07 32.183 -26.6156 1.49012e-06 2.38419e-05 6.18986 0.0135228 -1.47687 -0.0062 0.0497 0.0339 0 0 0 0 0.0215 0 0 0 0 0 0.022 0 0 0 0 0 0.017 0 0 0 0 0.0068 0.0873 0.0207 0 0 0 0 0.0267 0 0 0 0 0 0.0213 0 0 0 0 0 0.018 0 0 0 0 0.0067 0.0922 0.0055 0 0 0 0 0.0266 0 0 0 0 0 0.0228 0 0 0 0 0 0.015 0 0 0 0 0.0067 0.0925 -0.0113 0 0 0 0 0.0247 0 0 0 0 0 0.0221 0 0 0 0 0 0.018 0 0 0 0 0.0066 0.0935 -0.0272 0 0 0 0 0.0163 0 0 0 0 0 0.0171 0 0 0 0 0 0.018 0 0 0 0 -2.98023e-06 34.359 -4.76837e-05 5.9814 14.2109 -1.47342 -2.98023e-06 18.6556 -2.38419e-05 8.75118e-06 -1.19528e-05 -4.26887e-07 
-1.04692 -14.0399 -309.675 -2.51238 -4.87777 -1.1847 6.97766 -6.59803 1.72117 3.87571 0.862669 -3.66427 0 -45.1378 2.38419e-05 0.461608 -1.00443 0.00809203 -2.98023e-06 -35.4806 -4.76837e-05 3.11933 -29.9534 3.07272 -6.6151 -7.09405 0.856781 3.64732 -2.58475 -3.56381 -2.98023e-06 -46.0521 -7.15256e-05 -0.157959 4.36346 0.0120184 2.98023e-06 -35.9813 0 0.5143 -21.9371 0.550051 2.98023e-06 5.96337 -5.96333 1.65412 -0.888613 -2.74084 -2.98023e-06 34.359 -4.76837e-05 -35.5554 1.15259e-05 -7.93164 18.2388 2.98023e-06 -2.38419e-05 -41.8036 14.4145 5.82827 26.3617 1.78814e-05 0.000119209 2.97601e-06 5.12264e-06 -21.8686 26.7402 -1.78814e-05 -9.53674e-05 1.82688 0.00892121 2.38288 0.0062 0.0497 0.0339 0 0 0 0 0.0215 0 0 0 0 0 0.022 0 0 0 0 0 0.017 0 0 0 0 -0.0068 0.0873 0.0207 0 0 0 0 0.0267 0 0 0 0 0 0.0213 0 0 0 0 0 0.018 0 0 0 0 -0.0067 0.0922 0.0055 0 0 0 0 0.0266 0 0 0 0 0 0.0228 0 0 0 0 0 0.015 0 0 0 0 -0.0067 0.0925 -0.0113 0 0 0 0 0.0247 0 0 0 0 0 0.0221 0 0 0 0 0 0.018 0 0 0 0 -0.0066 0.0935 -0.0272 0 0 0 0 0.0163 0 0 0 0 0 0.0171 0 0 0 0 0 0.018 0 0 0 0 -2.98023e-06 34.359 -4.76837e-05 27.2507 -3.4151e-06 8.08742 -17.8897 -1.19209e-05 2.38419e-05 53.9209 -1.75719 -15.7075 -28.8736 2.98023e-06 0 4.0133e-06 9.73835e-07 32.183 -26.6156 1.49012e-06 2.38419e-05 6.18986 0.0135228 -1.47687 -0.0062 0.0497 0.0339 0 0 0 0 0.0215 0 0 0 0 0 0.022 0 0 0 0 0 0.017 0 0 0 0 0.0068 0.0873 0.0207 0 0 0 0 0.0267 0 0 0 0 0 0.0213 0 0 0 0 0 0.018 0 0 0 0 0.0067 0.0922 0.0055 0 0 0 0 0.0266 0 0 0 0 0 0.0228 0 0 0 0 0 0.015 0 0 0 0 0.0067 0.0925 -0.0113 0 0 0 0 0.0247 0 0 0 0 0 0.0221 0 0 0 0 0 0.018 0 0 0 0 0.0066 0.0935 -0.0272 0 0 0 0 0.0163 0 0 0 0 0 0.0171 0 0 0 0 0 0.018 0 0 0 0 -2.98023e-06 34.359 -4.76837e-05 5.9814 14.2109 -1.47342 -2.98023e-06 18.6556 -2.38419e-05 8.75118e-06 -1.19528e-05 -4.26887e-07 
-0.908398 -14.1428 -309.654 -2.13271 -4.71352 -1.2142 6.92346 -6.60932 1.66829 3.40289 0.656069 -3.14989 0 -45.0699 0 0.535772 -1.11785 0.0104526 -1.49012e-06 -35.4861 7.15256e-05 2.83573 -30.3873 2.81435 -6.64198 -7.0179 0.926232 3.08326 -2.71727 -3.06275 5.96046e-06 -45.7286 7.15256e-05 0.0569664 4.4011 -0.00437226 0 -36.0964 -9.53674e-05 0.430581 -21.6205 0.454202 0 5.9743 -5.97434 1.23878 -1.05748 -2.27747 -2.98023e-06 34.359 4.76837e-05 -35.4384 1.10991e-05 -8.37006 18.124 2.98023e-06 -2.38419e-05 -42.0599 15.2132 5.95806 26.4173 0 7.15256e-05 2.99691e-06 -1.70755e-06 -21.6064 26.9755 0 2.38419e-05 2.29965 0.00966245 2.08774 0.0062 0.0497 0.0339 0 0 0 0 0.0215 0 0 0 0 0 0.022 0 0 0 0 0 0.017 0 0 0 0 -0.0068 0.0873 0.0207 0 0 0 0 0.0267 0 0 0 0 0 0.0213 0 0 0 0 0 0.018 0 0 0 0 -0.0067 0.0922 0.0055 0 0 0 0 0.0266 0 0 0 0 0 0.0228 0 0 0 0 0 0.015 0 0 0 0 -0.0067 0.0925 -0.0113 0 0 0 0 0.0247 0 0 0 0 0 0.0221 0 0 0 0 0 0.018 0 0 0 0 -0.0066 0.0935 -0.0272 0 0 0 0 0.0163 0 0 0 0 0 0.0171 0 0 0 0 0 0.018 0 0 0 0 -2.98023e-06 34.359 4.76837e-05 28.4263 -2.56132e-06 8.42273 -18.0114 -1.78814e-05 2.38419e-05 52.465 -1.66391 -16.7436 -28.5485 7.45058e-06 0 7.49229e-07 9.07134e-07 32.7037 -26.5866 1.49012e-06 2.38419e-05 6.47597 0.018785 -1.06821 -0.0062 0.0497 0.0339 0 0 0 0 0.0215 0 0 0 0 0 0.022 0 0 0 0 0 0.017 0 0 0 0 0.0068 0.0873 0.0207 0 0 0 0 0.0267 0 0 0 0 0 0.0213 0 0 0 0 0 0.018 0 0 0 0 0.0067 0.0922 0.0055 0 0 0 0 0.0266 0 0 0 0 0 0.0228 0 0 0 0 0 0.015 0 0 0 0 0.0067 0.0925 -0.0113 0 0 0 0 0.0247 0 0 0 0 0 0.0221 0 0 0 0 0 0.018 0 0 0 0 0.0066 0.0935 -0.0272 0 0 0 0 0.0163 0 0 0 0 0 0.0171 0 0 0 0 0 0.018 0 0 0 0 -2.98023e-06 34.359 4.76837e-05 6.32221 13.9688 -1.532 -1.49012e-06 18.8053 -2.38419e-05 8.37765e-06 -1.36604e-05 4.26887e-07 
-0.766535 -14.245 -309.643 -1.72361 -4.51113 -1.73588 6.89375 -6.62638 1.57115 2.88764 0.442455 -2.24393 0 -44.9913 0 0.5633 -0.970428 0.00954058 -4.47035e-06 -35.5511 2.38419e-05 2.41518 -30.8568 2.41831 -6.67215 -6.94177 1.04251 2.52406 -2.88557 -2.1689 -2.98023e-06 -45.424 -2.38419e-05 0.276258 4.43291 -0.0213523 -2.98023e-06 -36.1437 0 0.364898 -22.3255 0.377343 -7.45058e-07 5.98401 -5.98395 0.894376 -1.24178 -1.83854 -5.96046e-06 34.359 -7.15256e-05 -35.3195 1.25932e-05 -8.48416 18.0116 2.98023e-06 -2.38419e-05 -42.2799 15.0323 5.96756 26.4919 0 0 -3.66656e-06 0 -21.3433 27.0344 0 2.38419e-05 2.55124 0.00667792 1.77191 0.0062 0.0497 0.0339 0 0 0 0 0.0215 0 0 0 0 0 0.022 0 0 0 0 0 0.017 0 0 0 0 -0.0068 0.0873 0.0207 0 0 0 0 0.0267 0 0 0 0 0 0.0213 0 0 0 0 0 0.018 0 0 0 0 -0.0067 0.0922 0.0055 0 0 0 0 0.0266 0 0 0 0 0 0.0228 0 0 0 0 0 0.015 0 0 0 0 -0.0067 0.0925 -0.0113 0 0 0 0 0.0247 0 0 0 0 0 0.0221 0 0 0 0 0 0.018 0 0 0 0 -0.0066 0.0935 -0.0272 0 0 0 0 0.0163 0 0 0 0 0 0.0171 0 0 0 0 0 0.018 0 0 0 0 -5.96046e-06 34.359 -7.15256e-05 29.1932 -8.53773e-07 8.37773 -18.2387 1.78814e-05 -7.15256e-05 51.6457 -0.970541 -16.9411 -28.2453 1.49012e-06 2.38419e-05 1.48108e-06 2.24115e-06 32.5681 -26.8942 -7.45058e-07 -4.76837e-05 6.7046 0.0287828 -0.400019 -0.0062 0.0497 0.0339 0 0 0 0 0.0215 0 0 0 0 0 0.022 0 0 0 0 0 0.017 0 0 0 0 0.0068 0.0873 0.0207 0 0 0 0 0.0267 0 0 0 0 0 0.0213 0 0 0 0 0 0.018 0 0 0 0 0.0067 0.0922 0.0055 0 0 0 0 0.0266 0 0 0 0 0 0.0228 0 0 0 0 0 0.015 0 0 0 0 0.0067 0.0925 -0.0113 0 0 0 0 0.0247 0 0 0 0 0 0.0221 0 0 0 0 0 0.018 0 0 0 0 0.0066 0.0935 -0.0272 0 0 0 0 0.0163 0 0 0 0 0 0.0171 0 0 0 0 0 0.018 0 0 0 0 -5.96046e-06 34.359 -7.15256e-05 6.42252 13.5816 -1.5142 0 18.9945 2.38419e-05 9.97848e-06 -1.02453e-05 -4.26887e-07 
